<svg width="34" height="34" viewBox="0 0 34 34" fill="none" xmlns="http://www.w3.org/2000/svg">
<path d="M5.02983 0.828L16.8672 12.6653L28.6432 0.889333C28.9033 0.612467 29.2166 0.390984 29.5644 0.238164C29.9122 0.0853448 30.2873 0.00433732 30.6672 0C31.4805 0 32.2605 0.323094 32.8356 0.898206C33.4107 1.47332 33.7338 2.25334 33.7338 3.06667C33.741 3.44265 33.6712 3.81612 33.5288 4.16417C33.3865 4.51222 33.1744 4.8275 32.9058 5.09067L20.9765 16.8667L32.9058 28.796C33.4113 29.2905 33.7076 29.9601 33.7338 30.6667C33.7338 31.48 33.4107 32.26 32.8356 32.8351C32.2605 33.4102 31.4805 33.7333 30.6672 33.7333C30.2763 33.7495 29.8864 33.6843 29.5221 33.5418C29.1579 33.3992 28.8272 33.1825 28.5512 32.9053L16.8672 21.068L5.0605 32.8747C4.80138 33.1423 4.49183 33.356 4.14971 33.5033C3.80758 33.6507 3.43966 33.7289 3.06717 33.7333C2.25383 33.7333 1.47382 33.4102 0.898705 32.8351C0.323593 32.26 0.000498967 31.48 0.000498967 30.6667C-0.00665095 30.2907 0.0631062 29.9172 0.20549 29.5692C0.347874 29.2211 0.559881 28.9058 0.828499 28.6427L12.7578 16.8667L0.828499 4.93733C0.323066 4.44286 0.0266871 3.77326 0.000498967 3.06667C0.000498967 2.25334 0.323593 1.47332 0.898705 0.898206C1.47382 0.323094 2.25383 0 3.06717 0C3.80317 0.0092 4.5085 0.306667 5.02983 0.828Z" fill="#1E4186"/>
</svg>
